<mxfile host="app.diagrams.net" modified="2023-11-30T16:39:34.926Z" agent="Mozilla/5.0 (Windows NT 10.0; Win64; x64) AppleWebKit/537.36 (KHTML, like Gecko) Chrome/119.0.0.0 Safari/537.36" version="22.1.5" etag="P2GtlA-EYL55BaIhxo8_" type="github">
  <diagram name="Page-1" id="JcVh1r8k2v6P69KWUKTo">
    <mxGraphModel>
      <root>
        <mxCell id="0" />
        <mxCell id="1" parent="0" />
      </root>
    </mxGraphModel>
  </diagram>
</mxfile>
